<mxfile host="app.diagrams.net" modified="2023-11-28T15:14:30.198Z" agent="5.0 (Windows NT 10.0; Win64; x64) AppleWebKit/537.36 (KHTML, like Gecko) Chrome/119.0.0.0 Safari/537.36" etag="xYXx6frb4G5puStr_VyM" version="20.8.23" type="github">
  <diagram id="C5RBs43oDa-KdzZeNtuy" name="Page-1">
    <mxGraphModel dx="1254" dy="705" grid="1" gridSize="10" guides="1" tooltips="1" connect="1" arrows="1" fold="1" page="1" pageScale="1" pageWidth="827" pageHeight="1169" math="0" shadow="0">
      <root>
        <mxCell id="WIyWlLk6GJQsqaUBKTNV-0" />
        <mxCell id="WIyWlLk6GJQsqaUBKTNV-1" parent="WIyWlLk6GJQsqaUBKTNV-0" />
        <mxCell id="WIyWlLk6GJQsqaUBKTNV-2" value="" style="rounded=0;html=1;jettySize=auto;orthogonalLoop=1;fontSize=11;endArrow=block;endFill=0;endSize=8;strokeWidth=1;shadow=0;labelBackgroundColor=none;edgeStyle=orthogonalEdgeStyle;" parent="WIyWlLk6GJQsqaUBKTNV-1" source="WIyWlLk6GJQsqaUBKTNV-3" target="WIyWlLk6GJQsqaUBKTNV-6" edge="1">
          <mxGeometry relative="1" as="geometry" />
        </mxCell>
        <mxCell id="7Ns_ECKy_7mG9smMUs-e-0" value="POST" style="edgeLabel;html=1;align=center;verticalAlign=middle;resizable=0;points=[];" vertex="1" connectable="0" parent="WIyWlLk6GJQsqaUBKTNV-2">
          <mxGeometry x="-0.26" y="10" relative="1" as="geometry">
            <mxPoint x="14" y="7" as="offset" />
          </mxGeometry>
        </mxCell>
        <mxCell id="WIyWlLk6GJQsqaUBKTNV-3" value="start" style="rounded=1;whiteSpace=wrap;html=1;fontSize=12;glass=0;strokeWidth=1;shadow=0;" parent="WIyWlLk6GJQsqaUBKTNV-1" vertex="1">
          <mxGeometry x="360" y="80" width="120" height="40" as="geometry" />
        </mxCell>
        <mxCell id="WIyWlLk6GJQsqaUBKTNV-4" value="Yes" style="rounded=0;html=1;jettySize=auto;orthogonalLoop=1;fontSize=11;endArrow=block;endFill=0;endSize=8;strokeWidth=1;shadow=0;labelBackgroundColor=none;edgeStyle=orthogonalEdgeStyle;" parent="WIyWlLk6GJQsqaUBKTNV-1" source="WIyWlLk6GJQsqaUBKTNV-6" edge="1">
          <mxGeometry y="20" relative="1" as="geometry">
            <mxPoint as="offset" />
            <mxPoint x="420" y="290" as="targetPoint" />
          </mxGeometry>
        </mxCell>
        <mxCell id="WIyWlLk6GJQsqaUBKTNV-5" value="No" style="edgeStyle=orthogonalEdgeStyle;rounded=0;html=1;jettySize=auto;orthogonalLoop=1;fontSize=11;endArrow=block;endFill=0;endSize=8;strokeWidth=1;shadow=0;labelBackgroundColor=none;entryX=1;entryY=0.25;entryDx=0;entryDy=0;" parent="WIyWlLk6GJQsqaUBKTNV-1" source="WIyWlLk6GJQsqaUBKTNV-6" target="WIyWlLk6GJQsqaUBKTNV-11" edge="1">
          <mxGeometry y="10" relative="1" as="geometry">
            <mxPoint as="offset" />
            <mxPoint x="500" y="400" as="targetPoint" />
            <Array as="points">
              <mxPoint x="590" y="210" />
              <mxPoint x="590" y="590" />
            </Array>
          </mxGeometry>
        </mxCell>
        <mxCell id="WIyWlLk6GJQsqaUBKTNV-6" value="не пустой $_POST" style="rhombus;whiteSpace=wrap;html=1;shadow=0;fontFamily=Helvetica;fontSize=12;align=center;strokeWidth=1;spacing=6;spacingTop=-4;" parent="WIyWlLk6GJQsqaUBKTNV-1" vertex="1">
          <mxGeometry x="370" y="170" width="100" height="80" as="geometry" />
        </mxCell>
        <mxCell id="WIyWlLk6GJQsqaUBKTNV-11" value="end" style="rounded=1;whiteSpace=wrap;html=1;fontSize=12;glass=0;strokeWidth=1;shadow=0;" parent="WIyWlLk6GJQsqaUBKTNV-1" vertex="1">
          <mxGeometry x="360" y="580" width="160" height="40" as="geometry" />
        </mxCell>
        <mxCell id="7Ns_ECKy_7mG9smMUs-e-16" value="" style="edgeStyle=orthogonalEdgeStyle;rounded=0;orthogonalLoop=1;jettySize=auto;html=1;" edge="1" parent="WIyWlLk6GJQsqaUBKTNV-1" source="7Ns_ECKy_7mG9smMUs-e-1" target="7Ns_ECKy_7mG9smMUs-e-15">
          <mxGeometry relative="1" as="geometry">
            <Array as="points">
              <mxPoint x="240" y="130" />
              <mxPoint x="240" y="130" />
            </Array>
          </mxGeometry>
        </mxCell>
        <mxCell id="7Ns_ECKy_7mG9smMUs-e-1" value="sberbank callback service" style="rounded=1;whiteSpace=wrap;html=1;fontSize=12;glass=0;strokeWidth=1;shadow=0;" vertex="1" parent="WIyWlLk6GJQsqaUBKTNV-1">
          <mxGeometry x="210" y="80" width="120" height="40" as="geometry" />
        </mxCell>
        <mxCell id="7Ns_ECKy_7mG9smMUs-e-3" value="Парcинг $_POST, запись в таблицу orders" style="rounded=1;whiteSpace=wrap;html=1;fontSize=12;glass=0;strokeWidth=1;shadow=0;" vertex="1" parent="WIyWlLk6GJQsqaUBKTNV-1">
          <mxGeometry x="355" y="290" width="130" height="50" as="geometry" />
        </mxCell>
        <mxCell id="7Ns_ECKy_7mG9smMUs-e-14" value="GET" style="edgeLabel;html=1;align=center;verticalAlign=middle;resizable=0;points=[];" vertex="1" connectable="0" parent="WIyWlLk6GJQsqaUBKTNV-1">
          <mxGeometry x="300" y="160" as="geometry">
            <mxPoint x="-51" y="-16" as="offset" />
          </mxGeometry>
        </mxCell>
        <mxCell id="7Ns_ECKy_7mG9smMUs-e-19" value="" style="edgeStyle=orthogonalEdgeStyle;rounded=0;orthogonalLoop=1;jettySize=auto;html=1;" edge="1" parent="WIyWlLk6GJQsqaUBKTNV-1" source="7Ns_ECKy_7mG9smMUs-e-15">
          <mxGeometry relative="1" as="geometry">
            <mxPoint x="270" y="290" as="targetPoint" />
          </mxGeometry>
        </mxCell>
        <mxCell id="7Ns_ECKy_7mG9smMUs-e-20" value="" style="edgeStyle=orthogonalEdgeStyle;rounded=0;orthogonalLoop=1;jettySize=auto;html=1;entryX=0;entryY=0.5;entryDx=0;entryDy=0;" edge="1" parent="WIyWlLk6GJQsqaUBKTNV-1" source="7Ns_ECKy_7mG9smMUs-e-15" target="WIyWlLk6GJQsqaUBKTNV-11">
          <mxGeometry relative="1" as="geometry" />
        </mxCell>
        <mxCell id="7Ns_ECKy_7mG9smMUs-e-15" value="$_GET имеет необходимые поля" style="rhombus;whiteSpace=wrap;html=1;shadow=0;fontFamily=Helvetica;fontSize=12;align=center;strokeWidth=1;spacing=6;spacingTop=-4;" vertex="1" parent="WIyWlLk6GJQsqaUBKTNV-1">
          <mxGeometry x="160" y="170" width="160" height="80" as="geometry" />
        </mxCell>
        <mxCell id="7Ns_ECKy_7mG9smMUs-e-18" value="Парcинг $_GET, запись в таблицу orders" style="rounded=1;whiteSpace=wrap;html=1;fontSize=12;glass=0;strokeWidth=1;shadow=0;" vertex="1" parent="WIyWlLk6GJQsqaUBKTNV-1">
          <mxGeometry x="190" y="290" width="130" height="50" as="geometry" />
        </mxCell>
        <mxCell id="7Ns_ECKy_7mG9smMUs-e-21" value="No" style="edgeLabel;html=1;align=center;verticalAlign=middle;resizable=0;points=[];" vertex="1" connectable="0" parent="WIyWlLk6GJQsqaUBKTNV-1">
          <mxGeometry x="330" y="260" as="geometry">
            <mxPoint y="6" as="offset" />
          </mxGeometry>
        </mxCell>
        <mxCell id="7Ns_ECKy_7mG9smMUs-e-22" value="Yes" style="edgeLabel;html=1;align=center;verticalAlign=middle;resizable=0;points=[];" vertex="1" connectable="0" parent="WIyWlLk6GJQsqaUBKTNV-1">
          <mxGeometry x="340" y="270" as="geometry">
            <mxPoint x="-93" y="-2" as="offset" />
          </mxGeometry>
        </mxCell>
        <mxCell id="7Ns_ECKy_7mG9smMUs-e-23" value="Отправка через API сбербанк register.do запроса на оплату" style="rounded=1;whiteSpace=wrap;html=1;fontSize=12;glass=0;strokeWidth=1;shadow=0;" vertex="1" parent="WIyWlLk6GJQsqaUBKTNV-1">
          <mxGeometry x="355" y="390" width="135" height="60" as="geometry" />
        </mxCell>
        <mxCell id="7Ns_ECKy_7mG9smMUs-e-27" value="получение статуса запроса register.do&lt;br&gt;&quot;ошибка авторизации&quot;" style="rounded=0;html=1;jettySize=auto;orthogonalLoop=1;fontSize=11;endArrow=block;endFill=0;endSize=8;strokeWidth=1;shadow=0;labelBackgroundColor=none;edgeStyle=orthogonalEdgeStyle;entryX=0.5;entryY=0;entryDx=0;entryDy=0;" edge="1" parent="WIyWlLk6GJQsqaUBKTNV-1" target="WIyWlLk6GJQsqaUBKTNV-11">
          <mxGeometry x="-0.1429" y="80" relative="1" as="geometry">
            <mxPoint as="offset" />
            <mxPoint x="430" y="450" as="sourcePoint" />
            <mxPoint x="433" y="500" as="targetPoint" />
            <Array as="points">
              <mxPoint x="440" y="450" />
            </Array>
          </mxGeometry>
        </mxCell>
        <mxCell id="7Ns_ECKy_7mG9smMUs-e-28" value="$_GET имеет необходимые поля" style="rhombus;whiteSpace=wrap;html=1;shadow=0;fontFamily=Helvetica;fontSize=12;align=center;strokeWidth=1;spacing=6;spacingTop=-4;" vertex="1" parent="WIyWlLk6GJQsqaUBKTNV-1">
          <mxGeometry x="171" y="380" width="166" height="90" as="geometry" />
        </mxCell>
        <mxCell id="7Ns_ECKy_7mG9smMUs-e-29" value="" style="edgeStyle=orthogonalEdgeStyle;rounded=0;orthogonalLoop=1;jettySize=auto;html=1;" edge="1" parent="WIyWlLk6GJQsqaUBKTNV-1">
          <mxGeometry relative="1" as="geometry">
            <mxPoint x="254" y="342" as="sourcePoint" />
            <mxPoint x="254" y="382" as="targetPoint" />
          </mxGeometry>
        </mxCell>
        <mxCell id="7Ns_ECKy_7mG9smMUs-e-31" value="" style="edgeStyle=orthogonalEdgeStyle;rounded=0;orthogonalLoop=1;jettySize=auto;html=1;entryX=0.5;entryY=0;entryDx=0;entryDy=0;" edge="1" parent="WIyWlLk6GJQsqaUBKTNV-1" target="7Ns_ECKy_7mG9smMUs-e-32">
          <mxGeometry relative="1" as="geometry">
            <mxPoint x="254" y="470" as="sourcePoint" />
            <mxPoint x="254" y="510" as="targetPoint" />
          </mxGeometry>
        </mxCell>
        <mxCell id="7Ns_ECKy_7mG9smMUs-e-36" value="" style="edgeStyle=orthogonalEdgeStyle;rounded=0;orthogonalLoop=1;jettySize=auto;html=1;" edge="1" parent="WIyWlLk6GJQsqaUBKTNV-1" source="7Ns_ECKy_7mG9smMUs-e-32" target="WIyWlLk6GJQsqaUBKTNV-11">
          <mxGeometry relative="1" as="geometry">
            <Array as="points">
              <mxPoint x="390" y="555" />
            </Array>
          </mxGeometry>
        </mxCell>
        <mxCell id="7Ns_ECKy_7mG9smMUs-e-32" value="хэш сумма колбэка и локальная совпадают" style="rhombus;whiteSpace=wrap;html=1;shadow=0;fontFamily=Helvetica;fontSize=12;align=center;strokeWidth=1;spacing=6;spacingTop=-4;" vertex="1" parent="WIyWlLk6GJQsqaUBKTNV-1">
          <mxGeometry x="150" y="510" width="187" height="90" as="geometry" />
        </mxCell>
        <mxCell id="7Ns_ECKy_7mG9smMUs-e-35" value="" style="edgeStyle=orthogonalEdgeStyle;rounded=0;orthogonalLoop=1;jettySize=auto;html=1;exitX=0.934;exitY=0.6;exitDx=0;exitDy=0;exitPerimeter=0;" edge="1" parent="WIyWlLk6GJQsqaUBKTNV-1" source="7Ns_ECKy_7mG9smMUs-e-42">
          <mxGeometry relative="1" as="geometry">
            <mxPoint x="310" y="654" as="sourcePoint" />
            <mxPoint x="440" y="624" as="targetPoint" />
            <Array as="points">
              <mxPoint x="310" y="694" />
              <mxPoint x="310" y="690" />
              <mxPoint x="308" y="690" />
              <mxPoint x="308" y="685" />
              <mxPoint x="440" y="685" />
            </Array>
          </mxGeometry>
        </mxCell>
        <mxCell id="7Ns_ECKy_7mG9smMUs-e-37" value="No" style="edgeLabel;html=1;align=center;verticalAlign=middle;resizable=0;points=[];" vertex="1" connectable="0" parent="WIyWlLk6GJQsqaUBKTNV-1">
          <mxGeometry x="340" y="270" as="geometry">
            <mxPoint x="28" y="282" as="offset" />
          </mxGeometry>
        </mxCell>
        <mxCell id="7Ns_ECKy_7mG9smMUs-e-38" value="Yes" style="edgeLabel;html=1;align=center;verticalAlign=middle;resizable=0;points=[];" vertex="1" connectable="0" parent="WIyWlLk6GJQsqaUBKTNV-1">
          <mxGeometry x="350" y="610" as="geometry">
            <mxPoint x="-93" y="-2" as="offset" />
          </mxGeometry>
        </mxCell>
        <mxCell id="7Ns_ECKy_7mG9smMUs-e-39" value="" style="edgeStyle=orthogonalEdgeStyle;rounded=0;orthogonalLoop=1;jettySize=auto;html=1;entryX=0.5;entryY=0;entryDx=0;entryDy=0;exitX=0.5;exitY=1;exitDx=0;exitDy=0;" edge="1" parent="WIyWlLk6GJQsqaUBKTNV-1" source="7Ns_ECKy_7mG9smMUs-e-32">
          <mxGeometry relative="1" as="geometry">
            <mxPoint x="250" y="601" as="sourcePoint" />
            <mxPoint x="243" y="641" as="targetPoint" />
            <Array as="points">
              <mxPoint x="244" y="601" />
              <mxPoint x="243" y="630" />
            </Array>
          </mxGeometry>
        </mxCell>
        <mxCell id="7Ns_ECKy_7mG9smMUs-e-41" value="status: в процессе" style="rounded=0;html=1;jettySize=auto;orthogonalLoop=1;fontSize=11;endArrow=block;endFill=0;endSize=8;strokeWidth=1;shadow=0;labelBackgroundColor=none;edgeStyle=orthogonalEdgeStyle;entryX=0.5;entryY=0;entryDx=0;entryDy=0;" edge="1" parent="WIyWlLk6GJQsqaUBKTNV-1">
          <mxGeometry x="-0.1322" y="77" relative="1" as="geometry">
            <mxPoint as="offset" />
            <mxPoint x="430" y="340" as="sourcePoint" />
            <mxPoint x="433" y="390" as="targetPoint" />
            <Array as="points">
              <mxPoint x="433" y="340" />
              <mxPoint x="433" y="365" />
            </Array>
          </mxGeometry>
        </mxCell>
        <mxCell id="7Ns_ECKy_7mG9smMUs-e-42" value="проверка успешного статуса колбэка&lt;br&gt;и его запись в базу" style="rhombus;whiteSpace=wrap;html=1;shadow=0;fontFamily=Helvetica;fontSize=12;align=center;strokeWidth=1;spacing=6;spacingTop=-4;" vertex="1" parent="WIyWlLk6GJQsqaUBKTNV-1">
          <mxGeometry x="160" y="640" width="163.5" height="90" as="geometry" />
        </mxCell>
        <mxCell id="7Ns_ECKy_7mG9smMUs-e-43" value="Yes&amp;nbsp;&lt;br&gt;статус: успешно обработан" style="edgeLabel;html=1;align=center;verticalAlign=middle;resizable=0;points=[];" vertex="1" connectable="0" parent="WIyWlLk6GJQsqaUBKTNV-1">
          <mxGeometry x="500" y="704" as="geometry">
            <mxPoint x="-93" y="-2" as="offset" />
          </mxGeometry>
        </mxCell>
        <mxCell id="7Ns_ECKy_7mG9smMUs-e-48" value="" style="edgeStyle=orthogonalEdgeStyle;rounded=0;orthogonalLoop=1;jettySize=auto;html=1;entryX=0.881;entryY=1.1;entryDx=0;entryDy=0;entryPerimeter=0;" edge="1" parent="WIyWlLk6GJQsqaUBKTNV-1" target="WIyWlLk6GJQsqaUBKTNV-11">
          <mxGeometry relative="1" as="geometry">
            <mxPoint x="240" y="730" as="sourcePoint" />
            <mxPoint x="500" y="660" as="targetPoint" />
            <Array as="points">
              <mxPoint x="239" y="730" />
              <mxPoint x="240" y="730" />
              <mxPoint x="240" y="731" />
              <mxPoint x="500" y="731" />
            </Array>
          </mxGeometry>
        </mxCell>
        <mxCell id="7Ns_ECKy_7mG9smMUs-e-49" value="No статус: ошибка" style="edgeLabel;html=1;align=center;verticalAlign=middle;resizable=0;points=[];" vertex="1" connectable="0" parent="WIyWlLk6GJQsqaUBKTNV-1">
          <mxGeometry x="340" y="270" as="geometry">
            <mxPoint x="7" y="470" as="offset" />
          </mxGeometry>
        </mxCell>
        <mxCell id="7Ns_ECKy_7mG9smMUs-e-50" value="status: Ошибка" style="rounded=0;html=1;jettySize=auto;orthogonalLoop=1;fontSize=11;endArrow=block;endFill=0;endSize=8;strokeWidth=1;shadow=0;labelBackgroundColor=none;edgeStyle=orthogonalEdgeStyle;exitX=1;exitY=0.5;exitDx=0;exitDy=0;" edge="1" parent="WIyWlLk6GJQsqaUBKTNV-1" source="7Ns_ECKy_7mG9smMUs-e-28">
          <mxGeometry x="1" y="340" relative="1" as="geometry">
            <mxPoint x="-323" y="340" as="offset" />
            <mxPoint x="317" y="430" as="sourcePoint" />
            <mxPoint x="420" y="580" as="targetPoint" />
            <Array as="points">
              <mxPoint x="337" y="430" />
              <mxPoint x="340" y="430" />
              <mxPoint x="340" y="455" />
              <mxPoint x="420" y="455" />
            </Array>
          </mxGeometry>
        </mxCell>
        <mxCell id="7Ns_ECKy_7mG9smMUs-e-51" value="No" style="edgeLabel;html=1;align=center;verticalAlign=middle;resizable=0;points=[];" vertex="1" connectable="0" parent="WIyWlLk6GJQsqaUBKTNV-1">
          <mxGeometry x="340" y="270" as="geometry">
            <mxPoint x="19" y="199" as="offset" />
          </mxGeometry>
        </mxCell>
        <mxCell id="7Ns_ECKy_7mG9smMUs-e-52" value="Yes" style="text;html=1;align=center;verticalAlign=middle;resizable=0;points=[];autosize=1;strokeColor=none;fillColor=none;" vertex="1" parent="WIyWlLk6GJQsqaUBKTNV-1">
          <mxGeometry x="243" y="465" width="50" height="30" as="geometry" />
        </mxCell>
      </root>
    </mxGraphModel>
  </diagram>
</mxfile>
